<svg xmlns="http://www.w3.org/2000/svg" xmlns:xlink="http://www.w3.org/1999/xlink" width="24" height="24" viewBox="0 0 24 24" class="answer-streak__Icons-sc-1x5sob-3 iYuPwc"><defs><rect id="uc9z5a1yra" width="22" height="22" x="0.25" y="0.25" rx="11"></rect><rect id="xy2mom4qvc" width="22" height="22" x="0.25" y="0.25" rx="11"></rect></defs><g fill="none" fill-rule="evenodd"><g><g><g><g><g><g fill-rule="nonzero" transform="translate(-797 -1903) translate(536 1581) translate(46 170) translate(83 152) translate(132)"><rect width="24" height="24" fill="#FFF" rx="12"></rect><rect width="22" height="22" x="1" y="1" fill="#EB670F" rx="11"></rect></g><g transform="translate(-797 -1903) translate(536 1581) translate(46 170) translate(83 152) translate(132) translate(.75 .75)"><mask id="mh0j3asj7b" fill="#fff"><use xlink:href="#uc9z5a1yra"></use></mask><path fill="#F5A23D" fill-rule="nonzero" d="M11.055 4.5s14.881 16.381 1.077 18.375c-13.511 0-4.014-13.608-4.014-13.608s1.077 4.42 1.664 4.42c1.567-.52 1.273-9.187 1.273-9.187z" mask="url(#mh0j3asj7b)"></path></g><g transform="translate(-797 -1903) translate(536 1581) translate(46 170) translate(83 152) translate(132) translate(.75 .75)"><mask id="ugjy7fw7sd" fill="#fff"><use xlink:href="#xy2mom4qvc"></use></mask><path fill="#EB670F" fill-rule="nonzero" d="M11.23 13.313s8.079 8.19.585 9.187c-7.335 0-2.18-6.804-2.18-6.804s.585 2.21.904 2.21c.85-.26.69-4.593.69-4.593z" mask="url(#ugjy7fw7sd)"></path></g></g></g></g></g></g></g></svg>