<svg width="23" height="23" viewBox="0 0 23 23" fill="none" xmlns="http://www.w3.org/2000/svg">
<g clip-path="url(#clip0_1_23)">
<path d="M21.8145 9.80567L17.0708 5.06192L15.7167 6.42084L19.8375 10.5417H6.34128V12.4583H19.8375L15.7167 16.5792L17.0717 17.9343L21.8155 13.1905C22.038 12.968 22.2146 12.7039 22.335 12.4132C22.4554 12.1224 22.5174 11.8108 22.5174 11.4962C22.5174 11.1815 22.4554 10.8699 22.335 10.5792C22.2146 10.2885 22.038 10.0243 21.8155 9.80184L21.8145 9.80567Z" fill="white"/>
<path d="M10.0395 20.125C10.0395 20.3792 9.93853 20.6229 9.75881 20.8026C9.57909 20.9824 9.33533 21.0833 9.08117 21.0833H2.875C2.62083 21.0833 2.37708 20.9824 2.19736 20.8026C2.01763 20.6229 1.91667 20.3792 1.91667 20.125V2.875C1.91667 2.62083 2.01763 2.37708 2.19736 2.19736C2.37708 2.01763 2.62083 1.91667 2.875 1.91667H9.08117C9.33533 1.91667 9.57909 2.01763 9.75881 2.19736C9.93853 2.37708 10.0395 2.62083 10.0395 2.875V7.98579H11.9562V2.875C11.9562 2.1125 11.6533 1.38124 11.1141 0.842068C10.5749 0.302901 9.84366 0 9.08117 0L2.875 0C2.1125 0 1.38124 0.302901 0.842068 0.842068C0.302901 1.38124 0 2.1125 0 2.875L0 20.125C0 20.8875 0.302901 21.6188 0.842068 22.1579C1.38124 22.6971 2.1125 23 2.875 23H9.08117C9.84366 23 10.5749 22.6971 11.1141 22.1579C11.6533 21.6188 11.9562 20.8875 11.9562 20.125V15.0142H10.0395V20.125Z" fill="white"/>
</g>
<defs>
<clipPath id="clip0_1_23">
<rect width="23" height="23" fill="white"/>
</clipPath>
</defs>
</svg>
