<?xml version="1.0" encoding="utf-8"?>
<!-- Generator: Adobe Illustrator 24.1.1, SVG Export Plug-In . SVG Version: 6.00 Build 0)  -->
<svg version="1.1" id="Layer_1" xmlns="http://www.w3.org/2000/svg" xmlns:xlink="http://www.w3.org/1999/xlink" x="0px" y="0px"
	 viewBox="0 0 512 512" style="enable-background:new 0 0 512 512;" xml:space="preserve">
<style type="text/css">
	.st0{fill:#FFFFFF;}
</style>
<g id="XMLID_2_">
	<path id="XMLID_7_" class="st0" d="M254.4,0c-31.1,0-60.7,6.2-88.7,17.1c20.2,48.2,88.7,215.5,88.7,215.5l98.8-210.1
		C322.9,8.6,289.5,0,254.4,0z M375.1,49.8l-98.8,210.9L484,364.9c15.6-31.1,24.9-66.9,24.9-104.3C508.9,168.1,454.4,87.1,375.1,49.8
		z M147.1,63.8c-84,35-144,118.3-144,215.5C3.1,407.7,107.4,512,235.8,512c91,0,169.6-52.9,207.8-128.4L235.8,279.3
		C235.8,279.3,167.3,112,147.1,63.8L147.1,63.8z"/>
</g>
</svg>
